<?xml version="1.0" encoding="utf-8"?>
<!-- Generator: Adobe Illustrator 25.2.1, SVG Export Plug-In . SVG Version: 6.00 Build 0)  -->
<svg version="1.1" id="Layer_1" xmlns="http://www.w3.org/2000/svg" xmlns:xlink="http://www.w3.org/1999/xlink" x="0px" y="0px"
	 viewBox="0 0 1440 378.8" style="enable-background:new 0 0 1440 378.8;" xml:space="preserve">
<style type="text/css">
	.st0{fill:#E65364;}
</style>
<path class="st0" d="M0,314.8l16,5.3c16,5.7,48,15.7,80-21.3s64-123,96-144s64,21,96,48s64,37,96,32s64-27,96-16s64,53,96,58.7
	c32,5.3,64-26.7,96-32c32-5.7,64,16.3,96,5.3s64-53,96-58.7c32-5.3,64,26.7,96,53.4c32,26.3,64,48.3,96,16
	c32-31.7,64-117.7,96-149.4c32-32.3,64-10.3,96,26.7s64,91,96,106.7c32,16.3,64-5.7,80-16l16-10.7V0h-16c-16,0-48,0-80,0s-64,0-96,0
	s-64,0-96,0s-64,0-96,0s-64,0-96,0s-64,0-96,0s-64,0-96,0s-64,0-96,0s-64,0-96,0s-64,0-96,0s-64,0-96,0s-64,0-96,0s-64,0-96,0
	s-64,0-96,0S32,0,16,0H0V314.8z"/>
</svg>
