<?xml version="1.0" encoding="utf-8"?>
<!-- Generator: Adobe Illustrator 25.2.1, SVG Export Plug-In . SVG Version: 6.00 Build 0)  -->
<svg version="1.1" id="Layer_1" xmlns="http://www.w3.org/2000/svg" xmlns:xlink="http://www.w3.org/1999/xlink" x="0px" y="0px"
	 viewBox="0 0 1440 320" style="enable-background:new 0 0 1440 320;" xml:space="preserve">
<style type="text/css">
	.st0{fill:#FAFFF0;}
	.st1{fill:#E65364;}
</style>
<polygon class="st0" points="1440,100.5 1183.2,25.1 1056.2,94.8 0,79.3 0,320 1440,320 "/>
<path class="st1" d="M0,256l16,5.3C32,267,64,277,96,240s64-123,96-144s64,21,96,48s64,37,96,32s64-27,96-16s64,53,96,58.7
	c32,5.3,64-26.7,96-32c32-5.7,64,16.3,96,5.3s64-53,96-58.7c32-5.3,64,26.7,96,53.4c32,26.3,64,48.3,96,16
	c32-31.7,64-117.7,96-149.4c32-32.3,64-10.3,96,26.7s64,91,96,106.7c32,16.3,64-5.7,80-16l16-10.7V0h-16c-16,0-48,0-80,0s-64,0-96,0
	s-64,0-96,0s-64,66.2-96,66.2s-64,0-96,0s-64,0-96,0s-64,0-96,0s-64,0-96,0s-64,1.6-96,1.6s-64,0-96,0s-64,0-96,0s-64,0-96,0
	s-64,0-96,0s-64,0-96,0s-64,0-80,0H0V256z"/>
</svg>
